<svg width="25" height="23" viewBox="0 0 25 23" fill="none" xmlns="http://www.w3.org/2000/svg">
<g id="heart">
<path id="Vector" d="M12.5 4C11.5 2 9.18367 0.992195 7.47013 1.00007C5.75659 1.00794 4.11548 1.69214 2.90381 2.90381C1.69214 4.11548 1.00794 5.75659 1.00007 7.47013C0.992195 9.18368 1.66128 10.831 2.86176 12.0538L3.21576 12.4078L12.4078 21.5998L21.5998 12.4078L21.9538 12.0538C23.1447 10.8291 23.8057 9.18484 23.7937 7.47662C23.7818 5.76841 23.0978 4.13357 21.8898 2.92571C20.6818 1.71786 19.0469 1.03409 17.3387 1.02231C15.6305 1.01053 13.5 2 12.5 4Z" stroke="#525252" stroke-width="2" stroke-linejoin="round"/>
</g>
</svg>
