<svg width="263" height="252" viewBox="0 0 263 252" fill="none" xmlns="http://www.w3.org/2000/svg">
<g filter="url(#filter0_i_50_122)">
<rect width="263" height="252" rx="126" fill="white"/>
<g filter="url(#filter1_dii_50_122)">
<g clip-path="url(#clip0_50_122)">
<rect x="38" y="36" width="185" height="185" rx="92.5" fill="#00A2FF"/>
<rect x="99" y="139" width="155" height="155" rx="77.5" fill="#092433"/>
<path d="M149 105.919C149 140.875 120.071 160 101.929 160C83.786 160 72.9998 132.347 73 110.032C73.0001 94.2531 88.1848 68 110.715 68C133.246 68 149 84.0824 149 105.919Z" fill="#092433"/>
<path d="M105.947 140.199L144.976 107.519C144.976 107.519 145.279 119.819 152.705 129.379C160.131 138.939 173.309 142.48 173.309 142.48L131.154 178.247C131.154 178.247 138.629 157.176 130.595 148.338C122.561 139.499 105.947 140.199 105.947 140.199Z" fill="#092433"/>
</g>
</g>
</g>
<defs>
<filter id="filter0_i_50_122" x="0" y="0" width="263" height="252" filterUnits="userSpaceOnUse" color-interpolation-filters="sRGB">
<feFlood flood-opacity="0" result="BackgroundImageFix"/>
<feBlend mode="normal" in="SourceGraphic" in2="BackgroundImageFix" result="shape"/>
<feColorMatrix in="SourceAlpha" type="matrix" values="0 0 0 0 0 0 0 0 0 0 0 0 0 0 0 0 0 0 127 0" result="hardAlpha"/>
<feMorphology radius="2" operator="erode" in="SourceAlpha" result="effect1_innerShadow_50_122"/>
<feOffset/>
<feGaussianBlur stdDeviation="4"/>
<feComposite in2="hardAlpha" operator="arithmetic" k2="-1" k3="1"/>
<feColorMatrix type="matrix" values="0 0 0 0 0 0 0 0 0 0 0 0 0 0 0 0 0 0 0.2 0"/>
<feBlend mode="normal" in2="shape" result="effect1_innerShadow_50_122"/>
</filter>
<filter id="filter1_dii_50_122" x="30" y="32" width="197" height="197" filterUnits="userSpaceOnUse" color-interpolation-filters="sRGB">
<feFlood flood-opacity="0" result="BackgroundImageFix"/>
<feColorMatrix in="SourceAlpha" type="matrix" values="0 0 0 0 0 0 0 0 0 0 0 0 0 0 0 0 0 0 127 0" result="hardAlpha"/>
<feOffset dx="-4" dy="4"/>
<feGaussianBlur stdDeviation="2"/>
<feComposite in2="hardAlpha" operator="out"/>
<feColorMatrix type="matrix" values="0 0 0 0 0 0 0 0 0 0 0 0 0 0 0 0 0 0 0.35 0"/>
<feBlend mode="normal" in2="BackgroundImageFix" result="effect1_dropShadow_50_122"/>
<feBlend mode="normal" in="SourceGraphic" in2="effect1_dropShadow_50_122" result="shape"/>
<feColorMatrix in="SourceAlpha" type="matrix" values="0 0 0 0 0 0 0 0 0 0 0 0 0 0 0 0 0 0 127 0" result="hardAlpha"/>
<feOffset dx="-4" dy="4"/>
<feGaussianBlur stdDeviation="4"/>
<feComposite in2="hardAlpha" operator="arithmetic" k2="-1" k3="1"/>
<feColorMatrix type="matrix" values="0 0 0 0 1 0 0 0 0 1 0 0 0 0 1 0 0 0 0.7 0"/>
<feBlend mode="normal" in2="shape" result="effect2_innerShadow_50_122"/>
<feColorMatrix in="SourceAlpha" type="matrix" values="0 0 0 0 0 0 0 0 0 0 0 0 0 0 0 0 0 0 127 0" result="hardAlpha"/>
<feOffset dx="4" dy="-4"/>
<feGaussianBlur stdDeviation="2"/>
<feComposite in2="hardAlpha" operator="arithmetic" k2="-1" k3="1"/>
<feColorMatrix type="matrix" values="0 0 0 0 0 0 0 0 0 0 0 0 0 0 0 0 0 0 0.25 0"/>
<feBlend mode="normal" in2="effect2_innerShadow_50_122" result="effect3_innerShadow_50_122"/>
</filter>
<clipPath id="clip0_50_122">
<rect x="38" y="36" width="185" height="185" rx="92.5" fill="white"/>
</clipPath>
</defs>
</svg>
