<svg viewBox="0 0 29 28" fill="none" xmlns="http://www.w3.org/2000/svg">
<path d="M17 19.5V21.5V21.5C17 22.3284 16.3284 23 15.5 23H5C2.79086 23 1 21.2091 1 19V9C1 6.79086 2.79086 5 5 5H15C16.1046 5 17 5.89543 17 7V7V9" stroke="white" stroke-width="2" stroke-linecap="round"/>
<path d="M1 7.71059C1 6.65738 1.41538 5.64667 2.15599 4.89783L5.289 1.73001C5.91735 1.09468 7 1.53963 7 2.4332V10.8667V13.2667V14.4667V17.6667V25.8284C7 26.6823 5.99876 27.1434 5.3499 26.5883L2.39962 24.0641C1.51137 23.3042 1 22.1937 1 21.0247V7.71059Z" fill="white" stroke="white" stroke-width="2"/>
<path d="M12 14L28 14" stroke="white" stroke-width="2" stroke-linecap="round"/>
<path d="M20.7279 6.72792L27.7279 13.7279" stroke="white" stroke-width="2" stroke-linecap="round"/>
<path d="M21 21L28 14" stroke="white" stroke-width="2" stroke-linecap="round"/>
</svg>
